<svg xmlns="http://www.w3.org/2000/svg" width="180" viewBox="0 0 180 180" height="180" version="1.0"><defs><clipPath id="a"><path d="M 18.671875 18.671875 L 161.171875 18.671875 L 161.171875 161.171875 L 18.671875 161.171875 Z M 18.671875 18.671875"/></clipPath></defs><path fill="#FFF" d="M-18 -18H198V198H-18z"/><path fill="#FFF" d="M-18 -18H198V198H-18z"/><path d="M-18 -18H198V198H-18z"/><g clip-path="url(#a)"><path fill="#FFF" d="M 89.921875 18.671875 C 88.757812 18.671875 87.589844 18.699219 86.425781 18.757812 C 85.261719 18.816406 84.097656 18.902344 82.9375 19.015625 C 81.777344 19.128906 80.621094 19.273438 79.46875 19.445312 C 78.3125 19.613281 77.164062 19.8125 76.023438 20.042969 C 74.878906 20.269531 73.742188 20.523438 72.609375 20.808594 C 71.480469 21.089844 70.355469 21.402344 69.238281 21.742188 C 68.125 22.078125 67.015625 22.445312 65.917969 22.835938 C 64.820312 23.230469 63.734375 23.648438 62.65625 24.097656 C 61.578125 24.542969 60.511719 25.015625 59.460938 25.511719 C 58.40625 26.011719 57.363281 26.535156 56.335938 27.085938 C 55.308594 27.636719 54.292969 28.210938 53.292969 28.808594 C 52.292969 29.410156 51.308594 30.03125 50.339844 30.679688 C 49.367188 31.328125 48.414062 32 47.480469 32.695312 C 46.542969 33.386719 45.625 34.105469 44.722656 34.84375 C 43.820312 35.585938 42.9375 36.347656 42.074219 37.128906 C 41.210938 37.914062 40.367188 38.714844 39.542969 39.542969 C 38.714844 40.367188 37.914062 41.210938 37.128906 42.074219 C 36.347656 42.9375 35.585938 43.820312 34.84375 44.722656 C 34.105469 45.625 33.386719 46.542969 32.695312 47.480469 C 32 48.414062 31.328125 49.367188 30.679688 50.339844 C 30.03125 51.308594 29.410156 52.292969 28.808594 53.292969 C 28.210938 54.292969 27.636719 55.308594 27.085938 56.335938 C 26.535156 57.363281 26.011719 58.40625 25.511719 59.460938 C 25.015625 60.511719 24.542969 61.578125 24.097656 62.65625 C 23.648438 63.734375 23.230469 64.820312 22.835938 65.917969 C 22.445312 67.015625 22.078125 68.125 21.742188 69.238281 C 21.402344 70.355469 21.089844 71.480469 20.808594 72.609375 C 20.523438 73.742188 20.269531 74.878906 20.042969 76.023438 C 19.8125 77.164062 19.613281 78.3125 19.445312 79.46875 C 19.273438 80.621094 19.128906 81.777344 19.015625 82.9375 C 18.902344 84.097656 18.816406 85.261719 18.757812 86.425781 C 18.699219 87.589844 18.671875 88.757812 18.671875 89.921875 C 18.671875 91.089844 18.699219 92.253906 18.757812 93.417969 C 18.816406 94.582031 18.902344 95.746094 19.015625 96.90625 C 19.128906 98.066406 19.273438 99.222656 19.445312 100.375 C 19.613281 101.53125 19.8125 102.679688 20.042969 103.824219 C 20.269531 104.964844 20.523438 106.105469 20.808594 107.234375 C 21.089844 108.367188 21.402344 109.488281 21.742188 110.605469 C 22.078125 111.722656 22.445312 112.828125 22.835938 113.925781 C 23.230469 115.023438 23.648438 116.109375 24.097656 117.1875 C 24.542969 118.265625 25.015625 119.332031 25.511719 120.386719 C 26.011719 121.441406 26.535156 122.480469 27.085938 123.507812 C 27.636719 124.539062 28.210938 125.550781 28.808594 126.550781 C 29.410156 127.550781 30.03125 128.539062 30.679688 129.507812 C 31.328125 130.476562 32 131.429688 32.695312 132.367188 C 33.386719 133.300781 34.105469 134.222656 34.84375 135.121094 C 35.585938 136.023438 36.347656 136.90625 37.128906 137.769531 C 37.914062 138.636719 38.714844 139.480469 39.542969 140.304688 C 40.367188 141.128906 41.210938 141.933594 42.074219 142.714844 C 42.9375 143.5 43.820312 144.257812 44.722656 145 C 45.625 145.738281 46.542969 146.457031 47.480469 147.152344 C 48.414062 147.84375 49.367188 148.515625 50.339844 149.164062 C 51.308594 149.8125 52.292969 150.4375 53.292969 151.035156 C 54.292969 151.636719 55.308594 152.210938 56.335938 152.757812 C 57.363281 153.308594 58.40625 153.832031 59.460938 154.332031 C 60.511719 154.832031 61.578125 155.300781 62.65625 155.75 C 63.734375 156.195312 64.820312 156.613281 65.917969 157.007812 C 67.015625 157.398438 68.125 157.765625 69.238281 158.105469 C 70.355469 158.441406 71.480469 158.753906 72.609375 159.035156 C 73.742188 159.320312 74.878906 159.574219 76.023438 159.804688 C 77.164062 160.03125 78.3125 160.230469 79.46875 160.402344 C 80.621094 160.574219 81.777344 160.714844 82.9375 160.828125 C 84.097656 160.945312 85.261719 161.03125 86.425781 161.085938 C 87.589844 161.144531 88.757812 161.171875 89.921875 161.171875 C 91.089844 161.171875 92.253906 161.144531 93.417969 161.085938 C 94.582031 161.03125 95.746094 160.945312 96.90625 160.828125 C 98.066406 160.714844 99.222656 160.574219 100.375 160.402344 C 101.53125 160.230469 102.679688 160.03125 103.824219 159.804688 C 104.964844 159.574219 106.105469 159.320312 107.234375 159.035156 C 108.367188 158.753906 109.488281 158.441406 110.605469 158.105469 C 111.722656 157.765625 112.828125 157.398438 113.925781 157.007812 C 115.023438 156.613281 116.109375 156.195312 117.1875 155.75 C 118.265625 155.300781 119.332031 154.832031 120.386719 154.332031 C 121.441406 153.832031 122.480469 153.308594 123.507812 152.757812 C 124.539062 152.210938 125.550781 151.636719 126.550781 151.035156 C 127.550781 150.4375 128.539062 149.8125 129.507812 149.164062 C 130.476562 148.515625 131.429688 147.84375 132.367188 147.152344 C 133.300781 146.457031 134.222656 145.738281 135.121094 145 C 136.023438 144.257812 136.90625 143.5 137.769531 142.714844 C 138.636719 141.933594 139.480469 141.128906 140.304688 140.304688 C 141.128906 139.480469 141.933594 138.636719 142.714844 137.769531 C 143.5 136.90625 144.257812 136.023438 145 135.121094 C 145.738281 134.222656 146.457031 133.300781 147.152344 132.367188 C 147.84375 131.429688 148.515625 130.476562 149.164062 129.507812 C 149.8125 128.539062 150.4375 127.550781 151.035156 126.550781 C 151.636719 125.550781 152.210938 124.539062 152.757812 123.507812 C 153.308594 122.480469 153.832031 121.441406 154.332031 120.386719 C 154.832031 119.332031 155.300781 118.265625 155.75 117.1875 C 156.195312 116.109375 156.613281 115.023438 157.007812 113.925781 C 157.398438 112.828125 157.765625 111.722656 158.105469 110.605469 C 158.441406 109.488281 158.753906 108.367188 159.035156 107.234375 C 159.320312 106.105469 159.574219 104.964844 159.804688 103.824219 C 160.03125 102.679688 160.230469 101.53125 160.402344 100.375 C 160.574219 99.222656 160.714844 98.066406 160.828125 96.90625 C 160.945312 95.746094 161.03125 94.582031 161.085938 93.417969 C 161.144531 92.253906 161.171875 91.089844 161.171875 89.921875 C 161.171875 88.757812 161.144531 87.589844 161.085938 86.425781 C 161.03125 85.261719 160.945312 84.097656 160.828125 82.9375 C 160.714844 81.777344 160.574219 80.621094 160.402344 79.46875 C 160.230469 78.3125 160.03125 77.164062 159.804688 76.023438 C 159.574219 74.878906 159.320312 73.742188 159.035156 72.609375 C 158.753906 71.480469 158.441406 70.355469 158.105469 69.238281 C 157.765625 68.125 157.398438 67.015625 157.007812 65.917969 C 156.613281 64.820312 156.195312 63.734375 155.75 62.65625 C 155.300781 61.578125 154.832031 60.511719 154.332031 59.460938 C 153.832031 58.40625 153.308594 57.363281 152.757812 56.335938 C 152.210938 55.308594 151.636719 54.292969 151.035156 53.292969 C 150.4375 52.292969 149.8125 51.308594 149.164062 50.339844 C 148.515625 49.367188 147.84375 48.414062 147.152344 47.480469 C 146.457031 46.542969 145.738281 45.625 145 44.722656 C 144.257812 43.820312 143.5 42.9375 142.714844 42.074219 C 141.933594 41.210938 141.128906 40.367188 140.304688 39.542969 C 139.480469 38.714844 138.636719 37.914062 137.769531 37.128906 C 136.90625 36.347656 136.023438 35.585938 135.121094 34.84375 C 134.222656 34.105469 133.300781 33.386719 132.367188 32.695312 C 131.429688 32 130.476562 31.328125 129.507812 30.679688 C 128.539062 30.03125 127.550781 29.410156 126.550781 28.808594 C 125.550781 28.210938 124.539062 27.636719 123.507812 27.085938 C 122.480469 26.535156 121.441406 26.011719 120.386719 25.511719 C 119.332031 25.015625 118.265625 24.542969 117.1875 24.097656 C 116.109375 23.648438 115.023438 23.230469 113.925781 22.835938 C 112.828125 22.445312 111.722656 22.078125 110.605469 21.742188 C 109.488281 21.402344 108.367188 21.089844 107.234375 20.808594 C 106.105469 20.523438 104.964844 20.269531 103.824219 20.042969 C 102.679688 19.8125 101.53125 19.613281 100.375 19.445312 C 99.222656 19.273438 98.066406 19.128906 96.90625 19.015625 C 95.746094 18.902344 94.582031 18.816406 93.417969 18.757812 C 92.253906 18.699219 91.089844 18.671875 89.921875 18.671875 Z M 100.101562 114.785156 C 99.785156 114.828125 99.46875 114.839844 99.152344 114.816406 C 98.835938 114.796875 98.523438 114.742188 98.21875 114.652344 C 97.914062 114.5625 97.621094 114.441406 97.34375 114.289062 C 97.0625 114.140625 96.800781 113.960938 96.5625 113.753906 C 96.320312 113.546875 96.105469 113.316406 95.910156 113.0625 C 95.71875 112.808594 95.558594 112.535156 95.425781 112.246094 C 95.289062 111.957031 95.1875 111.660156 95.121094 111.347656 C 95.050781 111.039062 95.015625 110.726562 95.011719 110.40625 L 95.011719 98.703125 C 95.011719 98.207031 95.089844 97.726562 95.253906 97.257812 C 95.414062 96.789062 95.648438 96.359375 95.957031 95.972656 C 96.265625 95.585938 96.628906 95.257812 97.046875 94.992188 C 97.464844 94.726562 97.914062 94.539062 98.394531 94.425781 C 99.328125 94.214844 100.234375 93.917969 101.113281 93.535156 C 101.992188 93.152344 102.824219 92.691406 103.617188 92.148438 C 104.40625 91.609375 105.140625 91 105.816406 90.324219 C 106.492188 89.644531 107.101562 88.910156 107.640625 88.121094 C 108.175781 87.328125 108.636719 86.492188 109.015625 85.613281 C 109.398438 84.734375 109.695312 83.828125 109.90625 82.894531 C 110.113281 81.960938 110.238281 81.015625 110.269531 80.058594 C 110.300781 79.101562 110.246094 78.148438 110.097656 77.203125 C 109.953125 76.257812 109.71875 75.332031 109.398438 74.429688 C 109.078125 73.527344 108.675781 72.664062 108.191406 71.835938 C 107.710938 71.011719 107.15625 70.234375 106.527344 69.511719 C 105.898438 68.792969 105.207031 68.132812 104.453125 67.542969 C 103.703125 66.949219 102.902344 66.433594 102.050781 65.992188 C 101.203125 65.550781 100.316406 65.191406 99.402344 64.914062 C 98.484375 64.640625 97.550781 64.453125 96.597656 64.351562 C 95.644531 64.253906 94.691406 64.246094 93.738281 64.324219 C 92.78125 64.402344 91.84375 64.570312 90.921875 64.828125 C 90 65.085938 89.109375 65.425781 88.25 65.847656 C 87.390625 66.273438 86.582031 66.773438 85.816406 67.351562 C 85.050781 67.925781 84.347656 68.570312 83.703125 69.277344 C 83.058594 69.988281 82.488281 70.75 81.988281 71.566406 C 81.488281 72.382812 81.070312 73.238281 80.730469 74.136719 C 80.390625 75.03125 80.140625 75.949219 79.972656 76.894531 C 79.808594 77.835938 79.730469 78.785156 79.742188 79.742188 L 79.742188 128.09375 C 79.742188 128.59375 79.695312 129.089844 79.597656 129.582031 C 79.5 130.074219 79.355469 130.550781 79.164062 131.011719 C 78.972656 131.476562 78.734375 131.917969 78.457031 132.332031 C 78.179688 132.75 77.863281 133.136719 77.507812 133.488281 C 77.152344 133.84375 76.769531 134.160156 76.351562 134.4375 C 75.933594 134.71875 75.496094 134.953125 75.03125 135.144531 C 74.566406 135.335938 74.089844 135.480469 73.597656 135.578125 C 73.109375 135.675781 72.609375 135.726562 72.109375 135.726562 L 67.019531 135.726562 C 66.519531 135.726562 66.023438 135.675781 65.53125 135.578125 C 65.039062 135.480469 64.5625 135.335938 64.097656 135.144531 C 63.636719 134.953125 63.195312 134.71875 62.78125 134.4375 C 62.363281 134.160156 61.976562 133.84375 61.621094 133.488281 C 61.269531 133.136719 60.953125 132.75 60.671875 132.332031 C 60.394531 131.917969 60.160156 131.476562 59.96875 131.011719 C 59.777344 130.550781 59.632812 130.074219 59.535156 129.582031 C 59.4375 129.089844 59.386719 128.59375 59.386719 128.09375 L 59.386719 80.660156 C 59.375 79.515625 59.414062 78.371094 59.511719 77.230469 C 59.605469 76.089844 59.753906 74.957031 59.957031 73.828125 C 60.160156 72.703125 60.417969 71.585938 60.726562 70.484375 C 61.035156 69.382812 61.394531 68.296875 61.808594 67.226562 C 62.21875 66.160156 62.679688 65.113281 63.191406 64.089844 C 63.703125 63.0625 64.261719 62.066406 64.867188 61.09375 C 65.472656 60.121094 66.125 59.179688 66.820312 58.273438 C 67.515625 57.363281 68.25 56.488281 69.027344 55.648438 C 69.804688 54.804688 70.621094 54.003906 71.476562 53.242188 C 72.332031 52.480469 73.21875 51.757812 74.140625 51.082031 C 75.0625 50.402344 76.015625 49.769531 77 49.179688 C 77.980469 48.59375 78.988281 48.054688 80.023438 47.5625 C 81.058594 47.066406 82.113281 46.625 83.1875 46.234375 C 84.261719 45.839844 85.355469 45.5 86.464844 45.210938 C 87.570312 44.921875 88.691406 44.6875 89.820312 44.503906 C 90.953125 44.324219 92.085938 44.195312 93.230469 44.117188 C 94.335938 44.105469 95.4375 44.140625 96.539062 44.230469 C 97.636719 44.320312 98.730469 44.457031 99.820312 44.648438 C 100.90625 44.839844 101.984375 45.078125 103.050781 45.367188 C 104.113281 45.660156 105.164062 45.996094 106.199219 46.386719 C 107.230469 46.773438 108.246094 47.207031 109.238281 47.691406 C 110.234375 48.171875 111.203125 48.699219 112.144531 49.273438 C 113.089844 49.84375 114.007812 50.457031 114.894531 51.117188 C 115.78125 51.773438 116.636719 52.46875 117.457031 53.207031 C 118.28125 53.945312 119.066406 54.71875 119.816406 55.527344 C 120.566406 56.335938 121.277344 57.179688 121.949219 58.054688 C 122.621094 58.933594 123.253906 59.835938 123.839844 60.773438 C 124.429688 61.707031 124.972656 62.667969 125.472656 63.652344 C 125.96875 64.636719 126.421875 65.644531 126.828125 66.671875 C 127.230469 67.699219 127.589844 68.742188 127.894531 69.800781 C 128.203125 70.863281 128.460938 71.933594 128.671875 73.019531 C 128.878906 74.101562 129.035156 75.195312 129.144531 76.292969 C 129.25 77.390625 129.304688 78.492188 129.3125 79.597656 C 129.316406 80.703125 129.269531 81.804688 129.171875 82.902344 C 129.070312 84.003906 128.921875 85.097656 128.722656 86.183594 C 128.523438 87.269531 128.273438 88.34375 127.976562 89.40625 C 127.675781 90.46875 127.328125 91.515625 126.929688 92.546875 C 126.535156 93.574219 126.089844 94.585938 125.597656 95.574219 C 125.109375 96.5625 124.574219 97.527344 123.992188 98.46875 C 123.410156 99.40625 122.789062 100.316406 122.125 101.199219 C 121.457031 102.078125 120.753906 102.929688 120.011719 103.746094 C 119.265625 104.558594 118.484375 105.339844 117.667969 106.082031 C 116.851562 106.828125 116.003906 107.53125 115.121094 108.195312 C 114.238281 108.859375 113.328125 109.480469 112.390625 110.0625 C 111.449219 110.640625 110.484375 111.175781 109.496094 111.664062 C 108.507812 112.15625 107.496094 112.597656 106.464844 112.996094 C 105.433594 113.390625 104.386719 113.738281 103.324219 114.039062 C 102.261719 114.335938 101.1875 114.585938 100.101562 114.785156 Z M 100.101562 114.785156"/></g></svg>